<svg id="Layer_1" viewBox="0 0 64 64" xmlns="http://www.w3.org/2000/svg" data-name="Layer 1"><path d="m18.75 5v7.67c0 1.84-1.91 3.33-3.75 3.33h-7v43h43v-54z" fill="#f4f2f2"/><path d="m18.75 12.67v-7.67l-10.75 11h7c1.84 0 3.75-1.49 3.75-3.33z" fill="#e8c5af"/><path d="m24.36 9.64h32v14h-32z" fill="#f9974e"/><path d="m40.42 18.83h-2.62l-.42 1.24h-1.79l2.54-7h2l2.54 7h-1.83zm-.42-1.32-.87-2.57-.86 2.57z" fill="#fff"/><path d="m45.13 13.05v7h-1.71v-7z" fill="#fff"/><path d="m41.25 37.16a4.33 4.33 0 0 0 -4.16 3.18h-3.2v-2.43a1.16 1.16 0 0 0 -1.15-1.15h-6.37a1.15 1.15 0 0 0 -1.15 1.15v2.43h-3.22a4.34 4.34 0 1 0 0 2.3h3.2v1.64a1.14 1.14 0 0 0 1.15 1.15h6.37a1.15 1.15 0 0 0 1.15-1.15v-1.64h3.2a4.33 4.33 0 1 0 4.16-5.48zm-23.39 6.37a2 2 0 1 1 2-2 2 2 0 0 1 -2 2zm13.73-.4h-4.07v-4.07h4.07zm9.66.4a2 2 0 1 1 2-2 2 2 0 0 1 -2 2z" fill="#f9974e"/></svg>