<svg id="Layer_1" viewBox="0 0 64 64" xmlns="http://www.w3.org/2000/svg" data-name="Layer 1"><path d="m18.75 5v7.67c0 1.84-1.91 3.33-3.75 3.33h-7v43h43v-54z" fill="#f4f2f2"/><path d="m18.75 12.67v-7.67l-10.75 11h7c1.84 0 3.75-1.49 3.75-3.33z" fill="#909cd3"/><path d="m24.34 9.64h32v14h-32z" fill="#6672bc"/><g fill="#fff"><path d="m36.75 18.83h-2.62l-.42 1.24h-1.79l2.54-7h2l2.54 7h-1.83zm-.44-1.32-.87-2.57-.86 2.57z"/><path d="m46.34 13.05-2.49 7h-2.14l-2.49-7h1.78l1.74 5.3 1.75-5.3z"/><path d="m48.76 13.05v7h-1.71v-7z"/></g><path d="m27.21 44.88a1.22 1.22 0 0 1 -.61-.17 1.14 1.14 0 0 1 -.54-1v-6a1.14 1.14 0 0 1 .54-1 1.17 1.17 0 0 1 1.12-.06l6.07 3a1.15 1.15 0 0 1 0 2.06l-6.07 3a1.16 1.16 0 0 1 -.51.17zm1.15-5.28v2.28l2.32-1.14z" fill="#6672bc"/><path d="m29.65 50.46a9.72 9.72 0 1 1 9.72-9.72 9.73 9.73 0 0 1 -9.72 9.72zm0-17.14a7.42 7.42 0 1 0 7.42 7.42 7.43 7.43 0 0 0 -7.42-7.42z" fill="#6672bc"/></svg>