<svg id="Layer_1" viewBox="0 0 64 64" xmlns="http://www.w3.org/2000/svg" data-name="Layer 1"><path d="m18.75 5v7.67c0 1.84-1.91 3.33-3.75 3.33h-7v43h43v-54z" fill="#f4f2f2"/><path d="m18.75 12.67v-7.67l-10.75 11h7c1.84 0 3.75-1.49 3.75-3.33z" fill="#eac083"/><path d="m24.36 9.64h32v14h-32z" fill="#e08d00"/><g fill="#fff"><path d="m31.23 14.69a3.25 3.25 0 0 1 1.25-1.27 3.7 3.7 0 0 1 1.83-.42 3.51 3.51 0 0 1 2.14.66 3.19 3.19 0 0 1 1.19 1.8h-1.88a1.51 1.51 0 0 0 -.6-.67 1.71 1.71 0 0 0 -.87-.23 1.61 1.61 0 0 0 -1.28.55 2.12 2.12 0 0 0 -.49 1.47 2.12 2.12 0 0 0 .48 1.42 1.61 1.61 0 0 0 1.28.55 1.71 1.71 0 0 0 .87-.23 1.51 1.51 0 0 0 .6-.67h1.88a3.13 3.13 0 0 1 -1.19 1.79 3.51 3.51 0 0 1 -2.14.66 3.61 3.61 0 0 1 -1.83-.46 3.16 3.16 0 0 1 -1.25-1.26 3.75 3.75 0 0 1 -.45-1.85 3.82 3.82 0 0 1 .46-1.84z"/><path d="m39.85 19.89a2.23 2.23 0 0 1 -1-.74 2 2 0 0 1 -.36-1.15h1.82a.8.8 0 0 0 .27.59.84.84 0 0 0 .6.21.93.93 0 0 0 .6-.18.58.58 0 0 0 .22-.48.57.57 0 0 0 -.18-.43 1.45 1.45 0 0 0 -.43-.28 7 7 0 0 0 -.72-.25 7.3 7.3 0 0 1 -1.11-.42 2 2 0 0 1 -.74-.62 1.7 1.7 0 0 1 -.31-1.14 1.84 1.84 0 0 1 .71-1.54 2.91 2.91 0 0 1 1.85-.46 3 3 0 0 1 1.87.55 2 2 0 0 1 .76 1.55h-1.85a.77.77 0 0 0 -.25-.54.89.89 0 0 0 -.59-.19.72.72 0 0 0 -.5.16.59.59 0 0 0 -.19.48.58.58 0 0 0 .32.53 5 5 0 0 0 1 .41 8.61 8.61 0 0 1 1.1.44 2.14 2.14 0 0 1 .74.61 1.68 1.68 0 0 1 .31 1 2.06 2.06 0 0 1 -.31 1.09 2.1 2.1 0 0 1 -.88.78 3.1 3.1 0 0 1 -1.37.29 3.5 3.5 0 0 1 -1.38-.27z"/><path d="m46 19.89a2.23 2.23 0 0 1 -1-.74 2 2 0 0 1 -.36-1.15h1.82a.8.8 0 0 0 .27.59.84.84 0 0 0 .6.21.93.93 0 0 0 .6-.18.58.58 0 0 0 .22-.48.57.57 0 0 0 -.18-.43 1.45 1.45 0 0 0 -.43-.28 7 7 0 0 0 -.72-.25 7.3 7.3 0 0 1 -1.11-.42 2 2 0 0 1 -.74-.62 1.7 1.7 0 0 1 -.31-1.14 1.84 1.84 0 0 1 .71-1.54 2.91 2.91 0 0 1 1.85-.46 3 3 0 0 1 1.87.55 2 2 0 0 1 .76 1.55h-1.85a.77.77 0 0 0 -.25-.54.89.89 0 0 0 -.59-.19.72.72 0 0 0 -.5.16.59.59 0 0 0 -.19.48.58.58 0 0 0 .32.53 5 5 0 0 0 1 .41 8.61 8.61 0 0 1 1.1.44 2.14 2.14 0 0 1 .74.61 1.68 1.68 0 0 1 .31 1 2.06 2.06 0 0 1 -.31 1.09 2.1 2.1 0 0 1 -.88.78 3.1 3.1 0 0 1 -1.37.29 3.5 3.5 0 0 1 -1.38-.27z"/></g><path d="m22.35 40.75a3.14 3.14 0 0 1 .93.82 2.72 2.72 0 0 1 .47 1.16 10 10 0 0 1 .14 1.82 12.19 12.19 0 0 0 0 1.22 1.45 1.45 0 0 0 .15.6.51.51 0 0 0 .27.27 3 3 0 0 0 .54.12.77.77 0 0 1 .53.31 1.1 1.1 0 0 1 .21.7q0 1-1.23 1a2.87 2.87 0 0 1 -1.36-.3 2.24 2.24 0 0 1 -.93-.9 2.69 2.69 0 0 1 -.33-1.34c0-.85 0-1.53-.05-2a7.86 7.86 0 0 0 -.08-1 1.88 1.88 0 0 0 -.37-.84 3 3 0 0 0 -.65-.54 2.41 2.41 0 0 1 -.56-.44 1 1 0 0 1 -.17-.62 1 1 0 0 1 .49-.93 5.5 5.5 0 0 0 .86-.65 1.45 1.45 0 0 0 .36-.67 4.26 4.26 0 0 0 .12-.91c0-.33 0-1.11.05-2.36a2.51 2.51 0 0 1 .73-1.84 2.59 2.59 0 0 1 1.89-.69q1.23 0 1.23 1a1.09 1.09 0 0 1 -.21.71.75.75 0 0 1 -.53.31 1.62 1.62 0 0 0 -.68.2.77.77 0 0 0 -.25.52 13.17 13.17 0 0 0 -.07 1.49 13.17 13.17 0 0 1 -.13 1.77 3 3 0 0 1 -.45 1.18 3.31 3.31 0 0 1 -.92.83z" fill="#e08d00"/><path d="m35.79 39.87a2.87 2.87 0 0 1 -.44-1.18 11.7 11.7 0 0 1 -.13-1.77 12.42 12.42 0 0 0 -.08-1.49.7.7 0 0 0 -.25-.52 1.57 1.57 0 0 0 -.68-.2.79.79 0 0 1 -.53-.31 1.15 1.15 0 0 1 -.2-.71q0-1 1.23-1a2.59 2.59 0 0 1 1.89.69 2.55 2.55 0 0 1 .73 1.84c0 1.25 0 2 .05 2.36a4.26 4.26 0 0 0 .12.91 1.45 1.45 0 0 0 .36.67 5.05 5.05 0 0 0 .86.65 1 1 0 0 1 .49.93 1 1 0 0 1 -.17.62 2.3 2.3 0 0 1 -.57.44 2.94 2.94 0 0 0 -.64.54 1.77 1.77 0 0 0 -.37.84 6.28 6.28 0 0 0 -.08 1c0 .51 0 1.19-.05 2a2.92 2.92 0 0 1 -.33 1.39 2.24 2.24 0 0 1 -.93.9 2.87 2.87 0 0 1 -1.36.32q-1.23 0-1.23-1a1.1 1.1 0 0 1 .21-.7.77.77 0 0 1 .52-.31 3.18 3.18 0 0 0 .55-.12.54.54 0 0 0 .27-.27 1.45 1.45 0 0 0 .15-.6 12.19 12.19 0 0 0 0-1.22 10.16 10.16 0 0 1 .13-1.82 2.86 2.86 0 0 1 .47-1.16 3.42 3.42 0 0 1 .93-.82 3.31 3.31 0 0 1 -.92-.9z" fill="#e08d00"/></svg>