<svg id="Layer_1" viewBox="0 0 64 64" xmlns="http://www.w3.org/2000/svg" data-name="Layer 1"><path d="m18.75 5v7.67c0 1.84-1.91 3.33-3.75 3.33h-7v43h43v-54z" fill="#f4f2f2"/><path d="m18.75 12.67v-7.67l-10.75 11h7c1.84 0 3.75-1.49 3.75-3.33z" fill="#f2d1de"/><path d="m24.38 9.64h32v14h-32z" fill="#f0719f"/><g fill="#fff"><path d="m30.5 14.69a3.27 3.27 0 0 1 1.26-1.27 3.64 3.64 0 0 1 1.82-.42 3.47 3.47 0 0 1 2.14.66 3.14 3.14 0 0 1 1.19 1.8h-1.91a1.55 1.55 0 0 0 -.59-.67 1.72 1.72 0 0 0 -.88-.23 1.64 1.64 0 0 0 -1.28.55 2.17 2.17 0 0 0 -.49 1.47 2.17 2.17 0 0 0 .52 1.42 1.64 1.64 0 0 0 1.28.55 1.72 1.72 0 0 0 .88-.23 1.55 1.55 0 0 0 .59-.67h1.88a3.08 3.08 0 0 1 -1.19 1.79 3.47 3.47 0 0 1 -2.14.66 3.54 3.54 0 0 1 -1.82-.46 3.18 3.18 0 0 1 -1.26-1.24 3.75 3.75 0 0 1 -.45-1.85 3.82 3.82 0 0 1 .45-1.86z"/><path d="m39.12 19.89a2.25 2.25 0 0 1 -1-.74 2 2 0 0 1 -.36-1.15h1.82a.82.82 0 0 0 .87.8.9.9 0 0 0 .6-.18.55.55 0 0 0 .22-.48.6.6 0 0 0 -.17-.43 1.45 1.45 0 0 0 -.43-.28 6.55 6.55 0 0 0 -.73-.25 8.23 8.23 0 0 1 -1.11-.42 2.17 2.17 0 0 1 -.74-.62 1.76 1.76 0 0 1 -.31-1.14 1.86 1.86 0 0 1 .71-1.54 3.42 3.42 0 0 1 3.72 0 2 2 0 0 1 .79 1.59h-1.88a.7.7 0 0 0 -.25-.54.87.87 0 0 0 -.59-.19.75.75 0 0 0 -.5.16.62.62 0 0 0 -.19.48.6.6 0 0 0 .32.53 5.54 5.54 0 0 0 1 .41 8.83 8.83 0 0 1 1.11.44 2 2 0 0 1 .73.61 1.62 1.62 0 0 1 .31 1 2.05 2.05 0 0 1 -.3 1.09 2.13 2.13 0 0 1 -.89.78 3 3 0 0 1 -1.37.29 3.57 3.57 0 0 1 -1.38-.22z"/><path d="m50.7 13.05-2.49 7h-2.14l-2.49-7h1.82l1.74 5.3 1.75-5.3z"/></g><path d="m46.05 36.34h-8.89v-5.06a1.16 1.16 0 0 0 -1.16-1.15h-22.64a1.15 1.15 0 0 0 -1.15 1.15v18.62a1.15 1.15 0 0 0 1.15 1.15h32.69a1.16 1.16 0 0 0 1.15-1.15v-12.41a1.15 1.15 0 0 0 -1.15-1.15zm-1.15 6.2h-7.74v-3.9h7.74zm-30.39-3.9h10.93v3.9h-10.93zm13.23 0h7.12v3.9h-7.12zm7.12-2.3h-7.12v-3.91h7.12zm-20.35-3.91h10.93v3.91h-10.93zm0 12.41h10.93v3.91h-10.93zm13.23 0h7.12v3.91h-7.12zm17.16 3.91h-7.74v-3.91h7.74z" fill="#f0719f"/></svg>