<svg id="Layer_1" viewBox="0 0 64 64" xmlns="http://www.w3.org/2000/svg" data-name="Layer 1"><path d="m18.75 5v7.67c0 1.84-1.91 3.33-3.75 3.33h-7v43h43v-54z" fill="#f4f2f2"/><path d="m18.75 12.67v-7.67l-10.75 11h7c1.84 0 3.75-1.49 3.75-3.33z" fill="#a8d8ef"/><path d="m24.36 9.64h32v14h-32z" fill="#1896e0"/><path d="m34.08 13.49a3.1 3.1 0 0 1 1.28 1.23 3.69 3.69 0 0 1 .46 1.84 3.66 3.66 0 0 1 -.46 1.83 3.09 3.09 0 0 1 -1.29 1.24 4.13 4.13 0 0 1 -1.93.44h-2.63v-7h2.63a4.14 4.14 0 0 1 1.94.42zm-.54 4.57a2 2 0 0 0 .54-1.5 1.87 1.87 0 0 0 -2-2h-.81v4.08h.73a2.09 2.09 0 0 0 1.54-.58z" fill="#fff"/><path d="m38.28 19.68a3.45 3.45 0 0 1 -1.28-1.29 3.81 3.81 0 0 1 0-3.7 3.43 3.43 0 0 1 1.31-1.28 3.65 3.65 0 0 1 1.79-.41 3.61 3.61 0 0 1 1.81.46 3.4 3.4 0 0 1 1.3 1.28 3.81 3.81 0 0 1 0 3.7 3.5 3.5 0 0 1 -1.3 1.29 3.61 3.61 0 0 1 -1.81.46 3.65 3.65 0 0 1 -1.82-.51zm3.16-1.68a2.11 2.11 0 0 0 .56-1.46 2.12 2.12 0 0 0 -.51-1.49 1.72 1.72 0 0 0 -1.34-.55 1.75 1.75 0 0 0 -1.36.55 2.1 2.1 0 0 0 -.5 1.49 2.09 2.09 0 0 0 .5 1.48 1.76 1.76 0 0 0 1.36.56 1.73 1.73 0 0 0 1.29-.58z" fill="#fff"/><path d="m44.8 14.69a3.25 3.25 0 0 1 1.25-1.27 3.7 3.7 0 0 1 1.83-.42 3.51 3.51 0 0 1 2.14.66 3.19 3.19 0 0 1 1.19 1.8h-1.88a1.51 1.51 0 0 0 -.6-.67 1.71 1.71 0 0 0 -.87-.23 1.61 1.61 0 0 0 -1.28.55 2.12 2.12 0 0 0 -.49 1.47 2.12 2.12 0 0 0 .49 1.42 1.61 1.61 0 0 0 1.28.55 1.71 1.71 0 0 0 .87-.23 1.51 1.51 0 0 0 .6-.67h1.88a3.13 3.13 0 0 1 -1.21 1.81 3.51 3.51 0 0 1 -2.14.66 3.61 3.61 0 0 1 -1.83-.46 3.16 3.16 0 0 1 -1.23-1.26 3.75 3.75 0 0 1 -.45-1.85 3.82 3.82 0 0 1 .45-1.86z" fill="#fff"/><g fill="#1896e0"><path d="m35.16 33.49h-22a1.15 1.15 0 1 1 0-2.29h22a1.15 1.15 0 1 1 0 2.29z"/><path d="m45.91 41.09h-13.3a1.15 1.15 0 1 1 0-2.3h13.3a1.15 1.15 0 1 1 0 2.3z"/><path d="m28.44 41.09h-15.24a1.15 1.15 0 0 1 0-2.3h15.24a1.15 1.15 0 1 1 0 2.3z"/><path d="m45.91 48.69h-4.3a1.15 1.15 0 1 1 0-2.3h4.3a1.15 1.15 0 1 1 0 2.3z"/><path d="m36.13 48.69h-22.93a1.15 1.15 0 1 1 0-2.3h22.93a1.15 1.15 0 0 1 0 2.3z"/></g></svg>