<svg id="Layer_1" viewBox="0 0 64 64" xmlns="http://www.w3.org/2000/svg" data-name="Layer 1"><path d="m18.75 5v7.67c0 1.84-1.91 3.33-3.75 3.33h-7v43h43v-54z" fill="#f4f2f2"/><path d="m18.75 12.67v-7.67l-10.75 11h7c1.84 0 3.75-1.49 3.75-3.33z" fill="#62cc82"/><path d="m24.38 9.64h32v14h-32z" fill="#00a037"/><g fill="#fff"><path d="m33.28 13.05v7h-1.71v-2.87h-2.66v2.89h-1.71v-7h1.71v2.73h2.66v-2.75z"/><path d="m39.56 13.05v1.37h-1.86v5.65h-1.7v-5.65h-1.87v-1.37z"/><path d="m48.37 13.05v7h-1.71v-4.19l-1.57 4.21h-1.38l-1.58-4.22v4.22h-1.71v-7h2l2 4.86 2-4.86z"/><path d="m51.31 18.75h2.24v1.32h-3.95v-7h1.71z"/></g><path d="m25.12 44.79c.08.14.15.27.21.4a1 1 0 0 1 .08.38.87.87 0 0 1 -.31.68 1.18 1.18 0 0 1 -.81.27 1.77 1.77 0 0 1 -.64-.12q-.54-.37-1.17-.87l-1.3-1-1.69-1.26-1.49-1.1a1.14 1.14 0 0 1 -.4-.78 1.12 1.12 0 0 1 .55-.9l.52-.41 1-.78 1.22-1 1.23-1 1-.77c.28-.22.46-.35.54-.4a2 2 0 0 1 .64-.14 1.16 1.16 0 0 1 .81.29.91.91 0 0 1 .3.68 1.12 1.12 0 0 1 -.28.79l-1.13.91-1.3 1-1.21.93-1 .78 4.59 3.39z" fill="#00a037"/><path d="m34.33 44.76 4.58-3.39-1-.78c-.4-.3-.8-.62-1.22-.93l-1.3-1-1.05-.83a1.12 1.12 0 0 1 -.28-.79.89.89 0 0 1 .31-.68 1.12 1.12 0 0 1 .8-.29 2.06 2.06 0 0 1 .65.14c.08 0 .25.18.53.4l1 .77 1.22 1 1.22 1 1 .78.52.41a1 1 0 0 1 .14 1.68l-1.53 1.12-1.7 1.26-1.29 1c-.42.33-.81.62-1.18.87a1.73 1.73 0 0 1 -.64.12 1.2 1.2 0 0 1 -.81-.27.91.91 0 0 1 -.31-.68.88.88 0 0 1 .09-.38 3 3 0 0 1 .2-.4z" fill="#00a037"/></svg>