<svg id="Layer_1" viewBox="0 0 64 64" xmlns="http://www.w3.org/2000/svg" data-name="Layer 1"><path d="m18.75 5v7.67c0 1.84-1.91 3.33-3.75 3.33h-7v43h43v-54z" fill="#f4f2f2"/><path d="m18.75 12.67v-7.67l-10.75 11h7c1.84 0 3.75-1.49 3.75-3.33z" fill="#87c6b7"/><path d="m24.34 9.64h32v14h-32z" fill="#219f84"/><g fill="#fff"><path d="m35.58 13.05v4.78a2.25 2.25 0 0 1 -.58 1.71 2.32 2.32 0 0 1 -1.68.6 2.48 2.48 0 0 1 -1.78-.63 2.33 2.33 0 0 1 -.67-1.79h1.7a1 1 0 0 0 .18.66.69.69 0 0 0 1 0 .89.89 0 0 0 .17-.58v-4.75z"/><path d="m42 16.42a2.13 2.13 0 0 1 -.86.82 3 3 0 0 1 -1.44.31h-1.03v2.52h-1.67v-7h2.77a3.21 3.21 0 0 1 1.42.29 2 2 0 0 1 .87.8 2.36 2.36 0 0 1 .29 1.17 2.29 2.29 0 0 1 -.35 1.09zm-1.67-.42a1 1 0 0 0 0-1.3 1 1 0 0 0 -.73-.23h-.93v1.76h.93a1 1 0 0 0 .73-.23z"/><path d="m47.86 15.27a1.36 1.36 0 0 0 -.55-.54 1.78 1.78 0 0 0 -.83-.18 1.71 1.71 0 0 0 -1.33.54 2.06 2.06 0 0 0 -.5 1.46 2.07 2.07 0 0 0 .52 1.51 1.89 1.89 0 0 0 1.45.55 1.75 1.75 0 0 0 1.06-.32 1.85 1.85 0 0 0 .64-.92h-2.17v-1.26h3.72v1.59a3.32 3.32 0 0 1 -.65 1.19 3.42 3.42 0 0 1 -1.15.89 3.55 3.55 0 0 1 -1.58.34 3.69 3.69 0 0 1 -1.86-.46 3.27 3.27 0 0 1 -1.27-1.26 3.75 3.75 0 0 1 -.45-1.85 3.82 3.82 0 0 1 .45-1.86 3.37 3.37 0 0 1 1.27-1.27 3.73 3.73 0 0 1 1.85-.42 3.54 3.54 0 0 1 2.12.61 2.9 2.9 0 0 1 1.15 1.69z"/></g><path d="m47.18 48.35-11.73-12.21a1.12 1.12 0 0 0 -.82-.35 1 1 0 0 0 -.83.34l-7.47 7.6-4-4.12a1.18 1.18 0 0 0 -1.64 0l-8.54 8.73a1.15 1.15 0 0 0 .82 1.95h33.38a1.14 1.14 0 0 0 .83-1.94zm-25.7-6.29 4.92 5 .89.91h-11.61zm9 5.94-2.56-2.63 6.67-6.79 9 9.42z" fill="#219f84"/><path d="m22.23 37.18a3.8 3.8 0 1 1 3.8-3.8 3.8 3.8 0 0 1 -3.8 3.8zm0-5.29a1.5 1.5 0 1 0 1.5 1.49 1.49 1.49 0 0 0 -1.5-1.49z" fill="#219f84"/></svg>