<svg id="Layer_1" viewBox="0 0 64 64" xmlns="http://www.w3.org/2000/svg" data-name="Layer 1"><path d="m18.75 5v7.67c0 1.84-1.91 3.33-3.75 3.33h-7v43h43v-54z" fill="#f4f2f2"/><path d="m18.75 12.67v-7.67l-10.75 11h7c1.84 0 3.75-1.49 3.75-3.33z" fill="#a1b9f7"/><path d="m24.37 9.64h32v14h-32z" fill="#5f85ff"/><path d="m31.91 13.05v4.78a2.28 2.28 0 0 1 -.62 1.71 2.34 2.34 0 0 1 -1.69.6 2.5 2.5 0 0 1 -1.78-.63 2.37 2.37 0 0 1 -.67-1.79h1.7a1 1 0 0 0 .18.66.63.63 0 0 0 .52.23.6.6 0 0 0 .48-.2.84.84 0 0 0 .17-.58v-4.78z" fill="#fff"/><path d="m34.45 19.89a2.2 2.2 0 0 1 -1-.74 2 2 0 0 1 -.36-1.15h1.82a.89.89 0 0 0 .27.59.84.84 0 0 0 .6.21.93.93 0 0 0 .6-.18.55.55 0 0 0 .22-.48.6.6 0 0 0 -.17-.43 1.45 1.45 0 0 0 -.43-.31 7.38 7.38 0 0 0 -.73-.25 8.23 8.23 0 0 1 -1.11-.42 2.08 2.08 0 0 1 -.74-.62 1.76 1.76 0 0 1 -.31-1.11 1.86 1.86 0 0 1 .71-1.54 2.91 2.91 0 0 1 1.85-.46 3 3 0 0 1 1.87.55 2 2 0 0 1 .76 1.55h-1.85a.73.73 0 0 0 -.25-.54.87.87 0 0 0 -.59-.19.73.73 0 0 0 -.5.16.64.64 0 0 0 .13 1 5.25 5.25 0 0 0 1 .41 9.49 9.49 0 0 1 1.11.44 2.11 2.11 0 0 1 .73.61 1.62 1.62 0 0 1 .31 1 2.05 2.05 0 0 1 -.3 1.09 2.13 2.13 0 0 1 -.89.78 3.07 3.07 0 0 1 -1.37.29 3.57 3.57 0 0 1 -1.38-.26z" fill="#fff"/><path d="m41 19.68a3.45 3.45 0 0 1 -1.31-1.29 3.74 3.74 0 0 1 0-3.7 3.43 3.43 0 0 1 1.31-1.28 3.61 3.61 0 0 1 1.76-.41 3.65 3.65 0 0 1 1.82.46 3.4 3.4 0 0 1 1.3 1.28 3.69 3.69 0 0 1 .47 1.85 3.59 3.59 0 0 1 -.48 1.85 3.43 3.43 0 0 1 -1.3 1.29 3.79 3.79 0 0 1 -3.62 0zm3.11-1.68a2.16 2.16 0 0 0 .5-1.48 2.16 2.16 0 0 0 -.5-1.49 1.74 1.74 0 0 0 -1.35-.55 1.71 1.71 0 0 0 -1.35.55 2.11 2.11 0 0 0 -.51 1.49 2.1 2.1 0 0 0 .51 1.48 1.72 1.72 0 0 0 1.35.56 1.75 1.75 0 0 0 1.35-.56z" fill="#fff"/><path d="m53.58 20.07h-1.71l-2.87-4.33v4.33h-1.7v-7h1.7l2.86 4.35v-4.37h1.71z" fill="#fff"/><g fill="#5f85ff"><path d="m24.61 42.31h1.28a.52.52 0 0 1 .52.53v1.25a.52.52 0 0 1 -.52.52h-1.28a.52.52 0 0 1 -.52-.52v-1.25a.52.52 0 0 1 .52-.53z"/><path d="m28.7 42.31h1.3a.51.51 0 0 1 .51.52v1.27a.51.51 0 0 1 -.51.51h-1.3a.51.51 0 0 1 -.51-.51v-1.27a.51.51 0 0 1 .51-.52z"/><path d="m32.81 42.31h1.3a.51.51 0 0 1 .51.52v1.27a.51.51 0 0 1 -.51.51h-1.3a.51.51 0 0 1 -.51-.51v-1.27a.52.52 0 0 1 .51-.52z"/><path d="m19.46 40.59a3.17 3.17 0 0 1 .93.83 2.86 2.86 0 0 1 .47 1.16 10.08 10.08 0 0 1 .14 1.82v1.22a1.86 1.86 0 0 0 .15.6.7.7 0 0 0 .27.27 3.18 3.18 0 0 0 .55.12.79.79 0 0 1 .53.31 1.1 1.1 0 0 1 .21.7c0 .68-.41 1-1.24 1a2.9 2.9 0 0 1 -1.36-.31 2.34 2.34 0 0 1 -.92-.9 2.8 2.8 0 0 1 -.34-1.34c0-.85 0-1.53-.05-2a6.77 6.77 0 0 0 -.07-1 1.92 1.92 0 0 0 -.38-.85 2.91 2.91 0 0 0 -.64-.53 2.51 2.51 0 0 1 -.57-.44 1 1 0 0 1 -.16-.63 1 1 0 0 1 .48-.93 4.62 4.62 0 0 0 .86-.64 1.43 1.43 0 0 0 .36-.68 4.08 4.08 0 0 0 .12-.9c0-.33 0-1.11.05-2.36a2.54 2.54 0 0 1 .74-1.85 2.58 2.58 0 0 1 1.88-.69c.83 0 1.24.34 1.24 1a1.09 1.09 0 0 1 -.21.71.76.76 0 0 1 -.53.3 2 2 0 0 0 -.68.2.75.75 0 0 0 -.25.52c0 .26-.06.76-.08 1.49a11.74 11.74 0 0 1 -.13 1.78 2.78 2.78 0 0 1 -.44 1.17 3.05 3.05 0 0 1 -.93.85z"/><path d="m38.29 39.71a2.92 2.92 0 0 1 -.45-1.17 13.2 13.2 0 0 1 -.13-1.78 13.48 13.48 0 0 0 -.07-1.49.75.75 0 0 0 -.25-.52 2 2 0 0 0 -.68-.2.74.74 0 0 1 -.53-.3 1.09 1.09 0 0 1 -.21-.71c0-.66.41-1 1.23-1a2.59 2.59 0 0 1 1.89.69 2.53 2.53 0 0 1 .73 1.85v2.36a4.75 4.75 0 0 0 .13.9 1.43 1.43 0 0 0 .36.68 4.48 4.48 0 0 0 .85.64 1 1 0 0 1 .49.93 1 1 0 0 1 -.17.63 2.41 2.41 0 0 1 -.56.44 3 3 0 0 0 -.65.53 1.92 1.92 0 0 0 -.27.81 7.86 7.86 0 0 0 -.08 1v2a2.69 2.69 0 0 1 -.33 1.34 2.37 2.37 0 0 1 -.93.9 2.87 2.87 0 0 1 -1.36.31c-.82 0-1.23-.33-1.23-1a1.1 1.1 0 0 1 .21-.7.79.79 0 0 1 .53-.31 2.81 2.81 0 0 0 .54-.12.59.59 0 0 0 .27-.27 1.61 1.61 0 0 0 .16-.6c0-.26 0-.67 0-1.22a10 10 0 0 1 .14-1.82 2.72 2.72 0 0 1 .47-1.16 3.17 3.17 0 0 1 .93-.83 3.05 3.05 0 0 1 -1.03-.81z"/></g></svg>