<svg id="Layer_1" viewBox="0 0 64 64" xmlns="http://www.w3.org/2000/svg" data-name="Layer 1"><path d="m18.75 5v7.67c0 1.84-1.91 3.33-3.75 3.33h-7v43h43v-54z" fill="#f4f2f2"/><path d="m18.75 12.67v-7.67l-10.75 11h7c1.84 0 3.75-1.49 3.75-3.33z" fill="#b8a6d1"/><path d="m24.37 9.64h32v14h-32z" fill="#7d6797"/><g fill="#fff"><path d="m38.17 13.05v7h-1.71v-4.19l-1.57 4.21h-1.38l-1.58-4.22v4.22h-1.71v-7h2l2 4.86 1.95-4.86z"/><path d="m44.47 16.42a2.13 2.13 0 0 1 -.86.82 3 3 0 0 1 -1.44.31h-1.06v2.52h-1.71v-7h2.77a3.21 3.21 0 0 1 1.42.29 2 2 0 0 1 .87.8 2.36 2.36 0 0 1 .29 1.17 2.29 2.29 0 0 1 -.28 1.09zm-1.7-.42a1 1 0 0 0 0-1.3 1 1 0 0 0 -.73-.23h-.93v1.76h.89a1 1 0 0 0 .77-.23z"/><path d="m46.23 13.18a2.59 2.59 0 0 1 1.77-.58 3 3 0 0 1 1.28.26 1.83 1.83 0 0 1 .81.71 1.94 1.94 0 0 1 .28 1 1.71 1.71 0 0 1 -.33 1.07 1.67 1.67 0 0 1 -.77.57 1.85 1.85 0 0 1 .9.63 1.83 1.83 0 0 1 .35 1.16 2.06 2.06 0 0 1 -.29 1.09 2 2 0 0 1 -.83.75 2.9 2.9 0 0 1 -1.3.27 2.94 2.94 0 0 1 -1.91-.59 2.25 2.25 0 0 1 -.75-1.78h1.66a1 1 0 0 0 .25.69.91.91 0 0 0 .7.26.78.78 0 0 0 .6-.23.93.93 0 0 0 -.09-1.29 1.74 1.74 0 0 0 -1-.21h-.32v-1.37h.32a1.63 1.63 0 0 0 .82-.18.64.64 0 0 0 .32-.62.71.71 0 0 0 -.7-.79.69.69 0 0 0 -.57.23 1 1 0 0 0 -.21.57h-1.7a2.23 2.23 0 0 1 .71-1.62z"/></g><path d="m30.05 30.2a.85.85 0 0 0 -.23 0 1.36 1.36 0 0 0 -.21 0 1.13 1.13 0 0 0 -.79 1l-.32 4.15-.65 8.42c-2-.07-7 .2-7.77 4.47a3.18 3.18 0 0 0 1.47 3.4 4.92 4.92 0 0 0 2.61.69 6.1 6.1 0 0 0 3.51-1.1 5.33 5.33 0 0 0 2.19-4c0-.06 0-.11 0-.17l.79-10.31a16 16 0 0 1 6.06 3.69 1.16 1.16 0 0 0 .8.32 1.1 1.1 0 0 0 .47-.1 1.14 1.14 0 0 0 .68-1.09 9.5 9.5 0 0 0 -8.61-9.37zm-3.73 19.22a3.55 3.55 0 0 1 -3.55.34.92.92 0 0 1 -.44-1c.42-2.29 3.41-2.6 5-2.6h.2a3.31 3.31 0 0 1 -1.21 3.26zm4.55-14.94.13-1.76a7.09 7.09 0 0 1 4.79 4.05 13.82 13.82 0 0 0 -4.92-2.29z" fill="#7d6797"/></svg>