<svg id="Layer_1" viewBox="0 0 64 64" xmlns="http://www.w3.org/2000/svg" data-name="Layer 1"><path d="m18.75 5v7.67c0 1.84-1.91 3.33-3.75 3.33h-7v43h43v-54z" fill="#f4f2f2"/><path d="m18.75 12.67v-7.67l-10.75 11h7c1.84 0 3.75-1.49 3.75-3.33z" fill="#e8b3bb"/><path d="m24.34 9.64h32v14h-32z" fill="#f25465"/><g fill="#fff"><path d="m37.7 13.05v7h-1.7v-4.19l-1.57 4.21h-1.43l-1.58-4.22v4.22h-1.67v-7h2l2 4.86 1.95-4.86z"/><path d="m44 16.42a2 2 0 0 1 -.86.82 3 3 0 0 1 -1.44.31h-1.06v2.52h-1.71v-7h2.77a3.18 3.18 0 0 1 1.42.29 1.94 1.94 0 0 1 .87.8 2.26 2.26 0 0 1 .29 1.17 2.18 2.18 0 0 1 -.28 1.09zm-1.7-.42a1 1 0 0 0 0-1.3 1 1 0 0 0 -.73-.23h-.93v1.76h.93a1 1 0 0 0 .73-.23z"/><path d="m45 18.77v-1.38l3.16-4.52h1.91v4.42h.82v1.48h-.82v1.3h-1.67v-1.3zm3.48-4-1.68 2.54h1.68z"/></g><path d="m22.66 49.32a1.08 1.08 0 0 1 -.6-.18 1.15 1.15 0 0 1 -.55-1v-13.72a1.16 1.16 0 0 1 1.66-1l14 6.87a1.16 1.16 0 0 1 0 2.07l-14 6.87a1.13 1.13 0 0 1 -.51.09zm1.15-13v10l10.19-5.02z" fill="#f25465"/></svg>