<svg id="Layer_1" viewBox="0 0 64 64" xmlns="http://www.w3.org/2000/svg" data-name="Layer 1"><path d="m18.75 5v7.67c0 1.84-1.91 3.33-3.75 3.33h-7v43h43v-54z" fill="#f4f2f2"/><path d="m18.75 12.67v-7.67l-10.75 11h7c1.84 0 3.75-1.49 3.75-3.33z" fill="#edb2b7"/><path d="m20.26 52.8a3 3 0 0 1 -2.27-1 3.31 3.31 0 0 1 .4-4.46c.93-1 3.55-2.08 6.57-3 .64-1.71 1.34-3.83 2.11-6.34a20.15 20.15 0 0 1 -1.4-6.57c-.14-2.7 1.3-4.24 2.79-4.37 1.18-.1 2.57.73 2.83 2.81a7 7 0 0 1 -.29 2.86l-.36 1.27c-.37 1.31-.74 2.61-1.12 3.87a16.87 16.87 0 0 0 3.1 4.63 28.33 28.33 0 0 1 4.23-.5c2.91 0 4 1.32 4.44 2.09a2.92 2.92 0 0 1 -.13 3 3.13 3.13 0 0 1 -2.93 1.31 12.68 12.68 0 0 1 -6.34-3.4c-1.67.34-3.48.78-5.19 1.26-1.06 2.64-2.12 4.59-3.16 5.32a5.74 5.74 0 0 1 -3.28 1.22zm3.58-5.66a11.64 11.64 0 0 0 -3.77 1.8c-.5.55-.57 1.13-.35 1.38s1.11.35 2.49-.62a7.1 7.1 0 0 0 1.63-2.56zm11-2.65a8.32 8.32 0 0 0 3.59 1.65.83.83 0 0 0 .81-.3.59.59 0 0 0 0-.63c-.11-.2-.6-.86-2.42-.87a16.13 16.13 0 0 0 -1.97.15zm-6.27-3.49c-.3.91-.59 1.79-.88 2.62.79-.2 1.58-.39 2.36-.56a19 19 0 0 1 -1.48-2.06zm.09-11.61c-.23 0-.75.62-.69 2a19.57 19.57 0 0 0 .3 2.61c.05-.19.11-.38.16-.56l.38-1.33a4.79 4.79 0 0 0 .2-1.9c-.08-.64-.3-.83-.35-.83z" fill="#c94c4f"/><path d="m24.37 9.64h32v14h-32z" fill="#c94c4f"/><g fill="#fff"><path d="m36.4 16.42a2.07 2.07 0 0 1 -.86.82 3 3 0 0 1 -1.44.31h-1.1v2.52h-1.67v-7h2.77a3.21 3.21 0 0 1 1.42.29 1.94 1.94 0 0 1 .87.8 2.36 2.36 0 0 1 .29 1.17 2.18 2.18 0 0 1 -.28 1.09zm-1.7-.42a1 1 0 0 0 0-1.3 1 1 0 0 0 -.73-.23h-.97v1.76h1a1 1 0 0 0 .7-.23z"/><path d="m42.14 13.49a3.1 3.1 0 0 1 1.28 1.23 3.59 3.59 0 0 1 .46 1.84 3.55 3.55 0 0 1 -.46 1.83 3.09 3.09 0 0 1 -1.29 1.24 4.1 4.1 0 0 1 -1.93.44h-2.63v-7h2.63a4.11 4.11 0 0 1 1.94.42zm-.54 4.57a2 2 0 0 0 .54-1.5 1.87 1.87 0 0 0 -2-2h-.81v4.08h.81a2.07 2.07 0 0 0 1.46-.58z"/><path d="m49.41 13.05v1.37h-2.86v1.48h2.14v1.33h-2.14v2.84h-1.71v-7z"/></g></svg>