<svg id="Layer_1" viewBox="0 0 64 64" xmlns="http://www.w3.org/2000/svg" data-name="Layer 1"><path d="m18.75 5v7.67c0 1.84-1.91 3.33-3.75 3.33h-7v43h43v-54z" fill="#f4f2f2"/><path d="m18.75 12.67v-7.67l-10.75 11h7c1.84 0 3.75-1.49 3.75-3.33z" fill="#bad3a3"/><path d="m24.36 9.64h32v14h-32z" fill="#679a3c"/><g fill="#fff"><path d="m35.21 16.42a2.07 2.07 0 0 1 -.86.82 3 3 0 0 1 -1.44.31h-1.06v2.52h-1.71v-7h2.77a3.21 3.21 0 0 1 1.42.29 1.94 1.94 0 0 1 .87.8 2.36 2.36 0 0 1 .29 1.17 2.18 2.18 0 0 1 -.28 1.09zm-1.7-.42a1 1 0 0 0 0-1.3 1 1 0 0 0 -.73-.23h-.93v1.76h.93a1 1 0 0 0 .73-.23z"/><path d="m42.66 20.07h-1.66l-2.86-4.33v4.33h-1.76v-7h1.71l2.91 4.33v-4.35h1.71z"/><path d="m48.56 15.27a1.4 1.4 0 0 0 -.54-.54 1.86 1.86 0 0 0 -.84-.18 1.73 1.73 0 0 0 -1.33.54 2.1 2.1 0 0 0 -.5 1.46 2.07 2.07 0 0 0 .53 1.51 1.88 1.88 0 0 0 1.44.55 1.67 1.67 0 0 0 1.68-1.24h-2.15v-1.26h3.72v1.59a3.35 3.35 0 0 1 -1.8 2.08 3.52 3.52 0 0 1 -1.58.34 3.65 3.65 0 0 1 -1.85-.46 3.14 3.14 0 0 1 -1.27-1.26 3.65 3.65 0 0 1 -.46-1.85 3.72 3.72 0 0 1 .46-1.86 3.27 3.27 0 0 1 1.26-1.27 3.75 3.75 0 0 1 1.85-.42 3.59 3.59 0 0 1 2.13.61 2.93 2.93 0 0 1 1.14 1.69z"/></g><path d="m47.09 49-11.73-12.21a1.19 1.19 0 0 0 -.83-.36 1.05 1.05 0 0 0 -.82.35l-7.47 7.6-4-4.12a1.18 1.18 0 0 0 -1.64 0l-8.6 8.74a1.15 1.15 0 0 0 .82 1.95h33.44a1.13 1.13 0 0 0 1.05-.7 1.12 1.12 0 0 0 -.22-1.25zm-25.7-6.29 4.92 5 .88.9h-11.61zm9 5.93-2.54-2.64 6.67-6.79 9 9.41z" fill="#679a3c"/><path d="m22.14 37.83a3.8 3.8 0 1 1 3.8-3.8 3.8 3.8 0 0 1 -3.8 3.8zm0-5.3a1.5 1.5 0 1 0 1.5 1.5 1.5 1.5 0 0 0 -1.5-1.5z" fill="#679a3c"/></svg>