<svg id="Layer_1" viewBox="0 0 64 64" xmlns="http://www.w3.org/2000/svg" data-name="Layer 1"><path d="m18.75 5v7.67c0 1.84-1.91 3.33-3.75 3.33h-7v43h43v-54z" fill="#f4f2f2"/><path d="m18.75 12.67v-7.67l-10.75 11h7c1.84 0 3.75-1.49 3.75-3.33z" fill="#f4b7a2"/><path d="m24.34 9.64h32v14h-32z" fill="#eb6f39"/><g fill="#fff"><path d="m36.65 16.42a2.13 2.13 0 0 1 -.86.82 3 3 0 0 1 -1.44.31h-1.06v2.52h-1.71v-7h2.77a3.21 3.21 0 0 1 1.42.29 2 2 0 0 1 .87.8 2.36 2.36 0 0 1 .29 1.17 2.29 2.29 0 0 1 -.28 1.09zm-1.65-.42a1 1 0 0 0 0-1.3 1 1 0 0 0 -.73-.23h-.93v1.76h.93a1 1 0 0 0 .73-.23z"/><path d="m42.89 16.42a2.13 2.13 0 0 1 -.86.82 3 3 0 0 1 -1.44.31h-1.06v2.52h-1.71v-7h2.77a3.21 3.21 0 0 1 1.42.29 2 2 0 0 1 .87.8 2.36 2.36 0 0 1 .29 1.17 2.29 2.29 0 0 1 -.28 1.09zm-1.7-.42a1 1 0 0 0 0-1.3 1 1 0 0 0 -.73-.23h-.93v1.76h.93a1 1 0 0 0 .73-.23z"/><path d="m49.11 13.05v1.37h-1.86v5.65h-1.71v-5.65h-1.86v-1.37z"/></g><path d="m41.24 33.81h-10.44v-2.45a1.15 1.15 0 0 0 -2.3 0v2.45h-10.45a1.15 1.15 0 0 0 -1.15 1.19v10.62a1.15 1.15 0 0 0 1.15 1.15h3.95l-1.36 2.5a1.15 1.15 0 0 0 .46 1.56 1.21 1.21 0 0 0 .55.14 1.15 1.15 0 0 0 1-.6l2-3.6h10.05l2 3.6a1.16 1.16 0 0 0 1 .6 1.18 1.18 0 0 0 .55-.14 1.14 1.14 0 0 0 .46-1.56l-1.36-2.5h3.92a1.14 1.14 0 0 0 1.15-1.15v-10.62a1.14 1.14 0 0 0 -1.18-1.19zm-1.15 10.66h-20.89v-8.36h20.89z" fill="#eb6f39"/></svg>