<svg id="Layer_1" viewBox="0 0 64 64" xmlns="http://www.w3.org/2000/svg" data-name="Layer 1"><path d="m18.75 5v7.67c0 1.84-1.91 3.33-3.75 3.33h-7v43h43v-54z" fill="#f4f2f2"/><path d="m18.75 12.67v-7.67l-10.75 11h7c1.84 0 3.75-1.49 3.75-3.33z" fill="#abb3dd"/><path d="m24.37 9.64h32v14h-32z" fill="#6672bc"/><g fill="#fff"><path d="m36.09 16.42a2.07 2.07 0 0 1 -.86.82 3 3 0 0 1 -1.44.31h-1.06v2.52h-1.73v-7h2.77a3.21 3.21 0 0 1 1.42.29 1.94 1.94 0 0 1 .87.8 2.36 2.36 0 0 1 .29 1.17 2.18 2.18 0 0 1 -.26 1.09zm-1.7-.42a1 1 0 0 0 0-1.3 1 1 0 0 0 -.73-.23h-.93v1.76h.93a1 1 0 0 0 .73-.23z"/><path d="m38.42 19.89a2.28 2.28 0 0 1 -1-.74 2 2 0 0 1 -.36-1.15h1.82a.89.89 0 0 0 .27.59.84.84 0 0 0 .6.21.93.93 0 0 0 .6-.18.55.55 0 0 0 .22-.48.57.57 0 0 0 -.18-.43 1.33 1.33 0 0 0 -.39-.31 7 7 0 0 0 -.72-.25 8.23 8.23 0 0 1 -1.11-.42 2.08 2.08 0 0 1 -.74-.62 1.7 1.7 0 0 1 -.35-1.11 1.86 1.86 0 0 1 .71-1.54 2.91 2.91 0 0 1 1.85-.46 3 3 0 0 1 1.87.55 2 2 0 0 1 .76 1.55h-1.85a.73.73 0 0 0 -.25-.54.87.87 0 0 0 -.59-.19.73.73 0 0 0 -.5.16.64.64 0 0 0 .13 1 5.25 5.25 0 0 0 1 .41 8.61 8.61 0 0 1 1.1.44 2.06 2.06 0 0 1 .74.61 1.62 1.62 0 0 1 .31 1 2 2 0 0 1 -.31 1.09 2 2 0 0 1 -.88.78 3.07 3.07 0 0 1 -1.37.29 3.57 3.57 0 0 1 -1.38-.26z"/><path d="m48 13.49a3.1 3.1 0 0 1 1.28 1.23 3.59 3.59 0 0 1 .46 1.84 3.55 3.55 0 0 1 -.46 1.83 3.09 3.09 0 0 1 -1.28 1.24 4.1 4.1 0 0 1 -1.93.44h-2.66v-7h2.59a4.11 4.11 0 0 1 2 .42zm-.54 4.57a2 2 0 0 0 .54-1.5 1.87 1.87 0 0 0 -2-2h-.81v4.08h.81a2.07 2.07 0 0 0 1.44-.58z"/></g><path d="m39.25 32.48-1.45-1.48a2.25 2.25 0 0 0 -1.59-.64 2.17 2.17 0 0 0 -1.58.69l-8.58 9.17c-.23 0-.46-.08-.71-.1a4.94 4.94 0 0 0 -3.92 1.53c-.87 1.11-.83 2.53-.8 3.91.05 1.7 0 2.78-1 3.36a1.15 1.15 0 0 0 .57 2.15h.09c1.27-.1 7.7-.79 9.31-3.83a5.19 5.19 0 0 0 .55-2.93l9.07-8.7a2.19 2.19 0 0 0 .67-1.57 2.17 2.17 0 0 0 -.63-1.56zm-10 7.74.92.93-.9.86-.88-.87zm-1.67 6c-.53 1-2.7 1.78-4.86 2.23a10 10 0 0 0 .22-2.89 4.37 4.37 0 0 1 .31-2.43 2.68 2.68 0 0 1 1.83-.66h.12a3.06 3.06 0 0 1 2 .74 2.77 2.77 0 0 1 .47.65 2.66 2.66 0 0 1 -.11 2.33zm4.25-6.64-1-1 5.44-5.82 1.3 1.24z" fill="#6672bc"/></svg>