<svg id="Layer_1" viewBox="0 0 64 64" xmlns="http://www.w3.org/2000/svg" data-name="Layer 1"><path d="m18.75 5v7.67c0 1.84-1.91 3.33-3.75 3.33h-7v43h43v-54z" fill="#f4f2f2"/><path d="m18.75 12.67v-7.67l-10.75 11h7c1.84 0 3.75-1.49 3.75-3.33z" fill="#f297c6"/><path d="m24.38 9.64h32v14h-32z" fill="#f967ad"/><g fill="#fff"><path d="m31.58 19.89a2.28 2.28 0 0 1 -1-.74 2 2 0 0 1 -.36-1.15h1.78a.8.8 0 0 0 .27.59.84.84 0 0 0 .6.21.93.93 0 0 0 .6-.18.58.58 0 0 0 .22-.48.57.57 0 0 0 -.18-.43 1.33 1.33 0 0 0 -.43-.28 7 7 0 0 0 -.72-.25 7.3 7.3 0 0 1 -1.11-.42 2 2 0 0 1 -.74-.62 1.7 1.7 0 0 1 -.27-1.14 1.86 1.86 0 0 1 .76-1.5 2.91 2.91 0 0 1 1.8-.5 3 3 0 0 1 1.87.55 2 2 0 0 1 .76 1.55h-1.85a.77.77 0 0 0 -.25-.54.89.89 0 0 0 -.59-.19.72.72 0 0 0 -.5.16.59.59 0 0 0 -.19.48.58.58 0 0 0 .32.53 5 5 0 0 0 1 .41 8.61 8.61 0 0 1 1.1.44 2.06 2.06 0 0 1 .74.61 1.68 1.68 0 0 1 .31 1 2 2 0 0 1 -.31 1.09 2.1 2.1 0 0 1 -.88.78 3.1 3.1 0 0 1 -1.37.29 3.5 3.5 0 0 1 -1.38-.27z"/><path d="m43.16 13.05-2.49 7h-2.14l-2.49-7h1.82l1.74 5.3 1.75-5.3z"/><path d="m48.53 15.27a1.36 1.36 0 0 0 -.55-.54 1.78 1.78 0 0 0 -.83-.18 1.71 1.71 0 0 0 -1.33.54 2.06 2.06 0 0 0 -.5 1.46 2.07 2.07 0 0 0 .52 1.51 1.89 1.89 0 0 0 1.45.55 1.75 1.75 0 0 0 1.06-.32 1.85 1.85 0 0 0 .64-.92h-2.17v-1.26h3.72v1.59a3.32 3.32 0 0 1 -.65 1.19 3.42 3.42 0 0 1 -1.15.89 3.55 3.55 0 0 1 -1.58.34 3.69 3.69 0 0 1 -1.86-.46 3.27 3.27 0 0 1 -1.3-1.26 3.75 3.75 0 0 1 -.45-1.85 3.82 3.82 0 0 1 .45-1.86 3.37 3.37 0 0 1 1.27-1.27 3.73 3.73 0 0 1 1.88-.42 3.54 3.54 0 0 1 2.12.61 2.9 2.9 0 0 1 1.15 1.69z"/></g><path d="m40.14 32.67a4 4 0 0 0 -3.8 2.85h-2.65v-2.05a1.15 1.15 0 0 0 -1.15-1.15h-5.68a1.15 1.15 0 0 0 -1.15 1.15v2.05h-2.65a4 4 0 1 0 0 2.3h2.65v1.34a1.08 1.08 0 0 0 .2.61 9.08 9.08 0 0 0 -5.29 8.23 1.15 1.15 0 0 0 2.3 0 6.78 6.78 0 1 1 13.56 0 1.15 1.15 0 1 0 2.3 0 9.08 9.08 0 0 0 -5.29-8.24 1.08 1.08 0 0 0 .2-.61v-1.33h2.65a4 4 0 1 0 3.8-5.15zm-20.88 5.69a1.7 1.7 0 1 1 1.74-1.69 1.69 1.69 0 0 1 -1.74 1.69zm8.74-3.74h3.38v3.38h-3.38zm12.13 3.74a1.7 1.7 0 1 1 1.7-1.69 1.69 1.69 0 0 1 -1.69 1.69z" fill="#f967ad"/></svg>