<svg id="Layer_1" viewBox="0 0 64 64" xmlns="http://www.w3.org/2000/svg" data-name="Layer 1"><path d="m18.75 5v7.67c0 1.84-1.91 3.33-3.75 3.33h-7v43h43v-54z" fill="#f4f2f2"/><path d="m18.75 12.67v-7.67l-10.75 11h7c1.84 0 3.75-1.49 3.75-3.33z" fill="#c1d3d2"/><path d="m24.37 9.64h32v14h-32z" fill="#95a4a4"/><path d="m36.55 13.05v1.37h-1.86v5.65h-1.69v-5.65h-1.88v-1.37z" fill="#fff"/><path d="m41.71 20.07-1.43-2.15-1.28 2.15h-1.92l2.25-3.57-2.33-3.45h2l1.41 2.12 1.24-2.12h1.94l-2.23 3.54 2.32 3.48z" fill="#fff"/><path d="m49.61 13.05v1.37h-1.86v5.65h-1.75v-5.65h-1.82v-1.37z" fill="#fff"/><g fill="#95a4a4"><path d="m35.08 34.14h-15.84a1.15 1.15 0 0 1 0-2.3h15.84a1.15 1.15 0 0 1 0 2.3z"/><path d="m16 34.14h-2.89a1.15 1.15 0 0 1 0-2.3h2.89a1.15 1.15 0 1 1 0 2.3z"/><path d="m45.82 41.74h-13.29a1.15 1.15 0 0 1 0-2.3h13.29a1.15 1.15 0 0 1 0 2.3z"/><path d="m28.35 41.74h-15.24a1.15 1.15 0 0 1 0-2.3h15.24a1.15 1.15 0 0 1 0 2.3z"/><path d="m45.82 49.33h-4.29a1.15 1.15 0 1 1 0-2.3h4.29a1.15 1.15 0 0 1 0 2.3z"/><path d="m37.81 49.33h-16.14a1.15 1.15 0 0 1 0-2.3h16.14a1.15 1.15 0 1 1 0 2.3z"/><path d="m17.46 49.33h-4.35a1.15 1.15 0 0 1 0-2.3h4.35a1.15 1.15 0 0 1 0 2.3z"/></g></svg>