<svg id="Layer_1" viewBox="0 0 64 64" xmlns="http://www.w3.org/2000/svg" data-name="Layer 1"><path d="m18.75 5v7.67c0 1.84-1.91 3.33-3.75 3.33h-7v43h43v-54z" fill="#f4f2f2"/><path d="m18.75 12.67v-7.67l-10.75 11h7c1.84 0 3.75-1.49 3.75-3.33z" fill="#d8e5da"/><path d="m24.37 9.64h32v14h-32z" fill="#92cba1"/><g fill="#fff"><path d="m36.35 20.07-1.43-2.15-1.26 2.15h-1.94l2.28-3.57-2.3-3.45h2l1.41 2.12 1.24-2.12h1.94l-2.29 3.54 2.32 3.48z"/><path d="m40.91 18.75h2.24v1.32h-3.95v-7h1.71z"/><path d="m45.13 19.89a2.23 2.23 0 0 1 -1-.74 2 2 0 0 1 -.36-1.15h1.82a.84.84 0 0 0 .26.59.89.89 0 0 0 .61.21.93.93 0 0 0 .6-.18.58.58 0 0 0 .22-.48.57.57 0 0 0 -.18-.43 1.45 1.45 0 0 0 -.43-.28 7 7 0 0 0 -.72-.25 7.3 7.3 0 0 1 -1.11-.42 2 2 0 0 1 -.74-.62 1.7 1.7 0 0 1 -.31-1.14 1.84 1.84 0 0 1 .71-1.54 2.91 2.91 0 0 1 1.85-.46 3 3 0 0 1 1.87.55 2 2 0 0 1 .78 1.5h-1.87a.77.77 0 0 0 -.25-.54.89.89 0 0 0 -.59-.19.72.72 0 0 0 -.5.16.59.59 0 0 0 -.19.48.58.58 0 0 0 .32.53 5 5 0 0 0 1 .41 8.61 8.61 0 0 1 1.1.44 2.14 2.14 0 0 1 .74.61 1.68 1.68 0 0 1 .31 1 2.06 2.06 0 0 1 -.31 1.09 2.1 2.1 0 0 1 -.88.78 3.1 3.1 0 0 1 -1.37.29 3.5 3.5 0 0 1 -1.38-.22z"/></g><path d="m45.7 35.69h-8.89v-5.06a1.15 1.15 0 0 0 -1.15-1.15h-22.66a1.15 1.15 0 0 0 -1.15 1.15v18.62a1.15 1.15 0 0 0 1.15 1.15h32.7a1.16 1.16 0 0 0 1.15-1.15v-12.41a1.15 1.15 0 0 0 -1.15-1.15zm-1.15 6.2h-7.74v-3.89h7.74zm-30.39-3.89h10.93v3.9h-10.93zm13.23 0h7.12v3.9h-7.12zm7.12-2.3h-7.12v-3.92h7.12zm-20.35-3.92h10.93v3.91h-10.93zm0 12.41h10.93v3.91h-10.93zm13.23 0h7.12v3.91h-7.12zm17.16 3.91h-7.74v-3.91h7.74z" fill="#92cba1"/></svg>