<svg id="Layer_1" viewBox="0 0 64 64" xmlns="http://www.w3.org/2000/svg" data-name="Layer 1"><path d="m18.75 5v7.67c0 1.84-1.91 3.33-3.75 3.33h-7v43h43v-54z" fill="#f4f2f2"/><path d="m18.75 12.67v-7.67l-10.75 11h7c1.84 0 3.75-1.49 3.75-3.33z" fill="#e1eabb"/><path d="m24.37 9.64h32v14h-32z" fill="#688700"/><path d="m34.72 20.07-1.43-2.15-1.29 2.15h-1.91l2.25-3.57-2.34-3.45h2l1.41 2.12 1.24-2.12h1.94l-2.23 3.54 2.32 3.48z" fill="#fff"/><path d="m45.52 13.05v7h-1.71v-4.19l-1.57 4.21h-1.38l-1.58-4.22v4.22h-1.71v-7h2l2 4.86 1.95-4.86z" fill="#fff"/><path d="m48.46 18.75h2.24v1.32h-4v-7h1.71z" fill="#fff"/><g fill="#688700"><path d="m22.19 44.73c.08.14.15.27.21.4a1 1 0 0 1 .08.38.87.87 0 0 1 -.31.68 1.2 1.2 0 0 1 -.81.27 1.77 1.77 0 0 1 -.64-.12q-.54-.37-1.17-.87l-1.3-1-1.7-1.26c-.57-.43-1.08-.8-1.53-1.12a1 1 0 0 1 .14-1.68l.52-.41 1-.78 1.22-1 1.23-1 1-.77c.28-.22.46-.35.54-.4a2 2 0 0 1 .64-.14 1.12 1.12 0 0 1 .8.29.89.89 0 0 1 .31.68 1.12 1.12 0 0 1 -.28.79l-1.05.83-1.3 1-1.21.93-1 .78 4.59 3.39z"/><path d="m36.79 44.7 4.59-3.39-1-.78-1.21-.93-1.3-1-1-.83a1.12 1.12 0 0 1 -.28-.79.91.91 0 0 1 .3-.68 1.16 1.16 0 0 1 .81-.29 2 2 0 0 1 .64.14c.08.05.26.18.54.4l1 .77 1.23 1 1.22 1 1 .78.52.41a1.12 1.12 0 0 1 .55.9 1.14 1.14 0 0 1 -.4.78c-.45.32-1 .69-1.53 1.12l-1.7 1.26-1.3 1q-.63.49-1.17.87a1.77 1.77 0 0 1 -.64.12 1.18 1.18 0 0 1 -.81-.27.87.87 0 0 1 -.31-.68 1 1 0 0 1 .08-.38c.06-.13.13-.26.21-.4z"/><path d="m31.92 32.78a1.3 1.3 0 0 1 1.08-.66 1.15 1.15 0 0 1 .78.28 1 1 0 0 1 .33.76.89.89 0 0 1 -.07.38l-4.52 10.55-1.26 2.91-1.26 2.88a1.41 1.41 0 0 1 -.53.46 1.37 1.37 0 0 1 -.56.13 1.15 1.15 0 0 1 -.77-.27 1 1 0 0 1 -.32-.8 1.28 1.28 0 0 1 0-.3l4.51-10.43c.41-1 .84-2 1.28-3s.89-1.94 1.31-2.89z"/></g></svg>