<svg id="Layer_1" viewBox="0 0 64 64" xmlns="http://www.w3.org/2000/svg" data-name="Layer 1"><path d="m18.75 5v7.67c0 1.84-1.91 3.33-3.75 3.33h-7v43h43v-54z" fill="#f4f2f2"/><path d="m18.75 12.67v-7.67l-10.75 11h7c1.84 0 3.75-1.49 3.75-3.33z" fill="#e0bd9b"/><path d="m24.38 9.64h32v14h-32z" fill="#c39868"/><g fill="#fff"><path d="m35.13 18.67h3v1.4h-5v-1.3l3-4.32h-3v-1.4h5v1.3z"/><path d="m41 13.05v7h-1.73v-7z"/><path d="m47.29 16.42a2.13 2.13 0 0 1 -.86.82 3 3 0 0 1 -1.44.31h-1.06v2.52h-1.71v-7h2.78a3.21 3.21 0 0 1 1.42.29 2 2 0 0 1 .87.8 2.36 2.36 0 0 1 .29 1.17 2.29 2.29 0 0 1 -.29 1.09zm-1.7-.42a1 1 0 0 0 0-1.3 1 1 0 0 0 -.73-.23h-.93v1.76h.93a1 1 0 0 0 .73-.23z"/></g><path d="m32.67 37.35a1.15 1.15 0 0 0 0-2.3h-1.82v-2.44h1.82a1.15 1.15 0 0 0 0-2.3h-1.82v-1.57a1.15 1.15 0 0 0 -2.3 0v1.57h-1.82a1.15 1.15 0 0 0 0 2.3h1.82v2.44h-1.82a1.15 1.15 0 0 0 0 2.3h1.82v2.43h-1.82a1.15 1.15 0 0 0 0 2.3h1.82v2h-1.82a1.15 1.15 0 0 0 -1.15 1.15v3.63a3.45 3.45 0 0 0 3.42 3.43h1.34a3.45 3.45 0 0 0 3.45-3.45v-3.63a1.15 1.15 0 0 0 -1.15-1.15h-1.79v-2h1.82a1.15 1.15 0 1 0 0-2.3h-1.82v-2.41zm-1.15 11.49a1.15 1.15 0 0 1 -1.15 1.16h-1.37a1.15 1.15 0 0 1 -1.15-1.15v-2.49h3.64z" fill="#c39868"/></svg>