<svg id="a" height="24" viewBox="0 0 24 24" width="24" xmlns="http://www.w3.org/2000/svg"><g fill="#3b82f6"><path d="m3 5.375v14c0 1.1046.8954 2 2 2h14c1.1046 0 2-.8954 2-2v-14c0-1.5166-1.2334-2.75-2.75-2.75h-12.5c-1.5166 0-2.75 1.2334-2.75 2.75zm6-1.25h9.25c.6895 0 1.25.5605 1.25 1.25v2h-10.5zm-.707 9.543c.3906-.3906 1.0234-.3906 1.4141 0l1.293 1.293 3.293-3.293c.3906-.3906 1.0234-.3906 1.4141 0s.3906 1.0234 0 1.4141l-4 4c-.1953.1953-.4512.293-.707.293s-.5117-.0977-.707-.293l-2-2c-.3906-.3906-.3906-1.0234 0-1.4141zm-.793-6.293h-3v-2c0-.6895.5605-1.25 1.25-1.25h1.75z" opacity=".3"/><path d="m8.293 13.668c.3906-.3906 1.0234-.3906 1.4141 0l1.293 1.293 3.293-3.293c.3906-.3906 1.0234-.3906 1.4141 0s.3906 1.0234 0 1.4141l-4 4c-.1953.1953-.4512.293-.707.293s-.5117-.0977-.707-.293l-2-2c-.3906-.3906-.3906-1.0234 0-1.4141z"/></g></svg>