<svg id="a" height="24" viewBox="0 0 24 24" width="24" xmlns="http://www.w3.org/2000/svg"><g fill="#3b82f6"><path d="m18.25 2.625h-12.5c-1.5166 0-2.75 1.2334-2.75 2.75v14c0 1.1046.8954 2 2 2h14c1.1046 0 2-.8954 2-2v-14c0-1.5166-1.2334-2.75-2.75-2.75zm-13.75 4.75v-2c0-.6895.5605-1.25 1.25-1.25h1.75v3.25zm11.8535 11.3535c-.0977.0977-.2256.1465-.3535.1465s-.2559-.0488-.3535-.1465l-2.5602-2.5602c-.5844.4377-1.3018.7067-2.0863.7067-1.9297 0-3.5-1.5703-3.5-3.5s1.5703-3.5 3.5-3.5 3.5 1.5703 3.5 3.5c0 .7845-.2689 1.502-.7067 2.0863l2.5602 2.5602c.1953.1953.1953.5117 0 .707zm3.1465-11.3535h-10.5v-3.25h9.25c.6895 0 1.25.5605 1.25 1.25zm-6 6c0 1.3784-1.1211 2.5-2.5 2.5s-2.5-1.1216-2.5-2.5 1.1211-2.5 2.5-2.5 2.5 1.1216 2.5 2.5z" opacity=".3"/><path d="m16.3535 18.0215-2.5602-2.5602c.4377-.5844.7067-1.3018.7067-2.0863 0-1.9297-1.5703-3.5-3.5-3.5s-3.5 1.5703-3.5 3.5 1.5703 3.5 3.5 3.5c.7845 0 1.502-.2689 2.0863-.7067l2.5602 2.5602c.0977.0977.2256.1465.3535.1465s.2559-.0488.3535-.1465c.1953-.1953.1953-.5117 0-.707zm-5.3535-2.1465c-1.3789 0-2.5-1.1216-2.5-2.5s1.1211-2.5 2.5-2.5 2.5 1.1216 2.5 2.5-1.1211 2.5-2.5 2.5z"/></g></svg>